<mxfile host="app.diagrams.net" agent="Mozilla/5.0 (Windows NT 10.0; Win64; x64) AppleWebKit/537.36 (KHTML, like Gecko) Chrome/133.0.0.0 Safari/537.36 Edg/133.0.0.0" version="26.0.16">
  <diagram name="หน้า-1" id="Ha9cPXkRf8-OBD947Rir">
    <mxGraphModel dx="1917" dy="554" grid="1" gridSize="10" guides="1" tooltips="1" connect="1" arrows="1" fold="1" page="1" pageScale="1" pageWidth="827" pageHeight="1169" math="0" shadow="0">
      <root>
        <mxCell id="0" />
        <mxCell id="1" parent="0" />
        <mxCell id="eBCpTWnn6efVukBT622a-1" value="" style="group" vertex="1" connectable="0" parent="1">
          <mxGeometry x="350" y="80" width="80" height="80" as="geometry" />
        </mxCell>
        <mxCell id="eBCpTWnn6efVukBT622a-2" value="" style="ellipse;whiteSpace=wrap;html=1;strokeWidth=3;fontFamily=Tahoma;fillColor=#60a917;strokeColor=#2D7600;fontColor=#ffffff;" vertex="1" parent="eBCpTWnn6efVukBT622a-1">
          <mxGeometry width="80" height="80" as="geometry" />
        </mxCell>
        <mxCell id="eBCpTWnn6efVukBT622a-3" value="A" style="text;html=1;align=center;verticalAlign=middle;whiteSpace=wrap;rounded=0;fontSize=20;fontStyle=1" vertex="1" parent="eBCpTWnn6efVukBT622a-1">
          <mxGeometry x="10" y="25" width="60" height="30" as="geometry" />
        </mxCell>
        <mxCell id="eBCpTWnn6efVukBT622a-4" value="" style="group" vertex="1" connectable="0" parent="1">
          <mxGeometry x="210" y="220" width="80" height="80" as="geometry" />
        </mxCell>
        <mxCell id="eBCpTWnn6efVukBT622a-5" value="" style="ellipse;whiteSpace=wrap;html=1;strokeWidth=3;fontFamily=Tahoma;fillColor=#60a917;strokeColor=#2D7600;fontColor=#ffffff;" vertex="1" parent="eBCpTWnn6efVukBT622a-4">
          <mxGeometry width="80" height="80" as="geometry" />
        </mxCell>
        <mxCell id="eBCpTWnn6efVukBT622a-6" value="B" style="text;html=1;align=center;verticalAlign=middle;whiteSpace=wrap;rounded=0;fontSize=20;fontStyle=1" vertex="1" parent="eBCpTWnn6efVukBT622a-4">
          <mxGeometry x="10" y="25" width="60" height="30" as="geometry" />
        </mxCell>
        <mxCell id="eBCpTWnn6efVukBT622a-8" value="" style="group" vertex="1" connectable="0" parent="1">
          <mxGeometry x="190" y="550" width="80" height="80" as="geometry" />
        </mxCell>
        <mxCell id="eBCpTWnn6efVukBT622a-9" value="" style="ellipse;whiteSpace=wrap;html=1;strokeWidth=3;fontFamily=Tahoma;fillColor=#60a917;strokeColor=#2D7600;fontColor=#ffffff;" vertex="1" parent="eBCpTWnn6efVukBT622a-8">
          <mxGeometry width="80" height="80" as="geometry" />
        </mxCell>
        <mxCell id="eBCpTWnn6efVukBT622a-10" value="I" style="text;html=1;align=center;verticalAlign=middle;whiteSpace=wrap;rounded=0;fontSize=20;fontStyle=1" vertex="1" parent="eBCpTWnn6efVukBT622a-8">
          <mxGeometry x="10" y="25" width="60" height="30" as="geometry" />
        </mxCell>
        <mxCell id="eBCpTWnn6efVukBT622a-11" value="" style="group" vertex="1" connectable="0" parent="1">
          <mxGeometry x="80" y="380" width="80" height="80" as="geometry" />
        </mxCell>
        <mxCell id="eBCpTWnn6efVukBT622a-12" value="" style="ellipse;whiteSpace=wrap;html=1;strokeWidth=3;fontFamily=Tahoma;fillColor=#60a917;strokeColor=#2D7600;fontColor=#ffffff;" vertex="1" parent="eBCpTWnn6efVukBT622a-11">
          <mxGeometry width="80" height="80" as="geometry" />
        </mxCell>
        <mxCell id="eBCpTWnn6efVukBT622a-13" value="D" style="text;html=1;align=center;verticalAlign=middle;whiteSpace=wrap;rounded=0;fontSize=20;fontStyle=1" vertex="1" parent="eBCpTWnn6efVukBT622a-11">
          <mxGeometry x="10" y="25" width="60" height="30" as="geometry" />
        </mxCell>
        <mxCell id="eBCpTWnn6efVukBT622a-14" value="" style="group" vertex="1" connectable="0" parent="1">
          <mxGeometry x="-40" y="550" width="80" height="80" as="geometry" />
        </mxCell>
        <mxCell id="eBCpTWnn6efVukBT622a-15" value="" style="ellipse;whiteSpace=wrap;html=1;strokeWidth=3;fontFamily=Tahoma;fillColor=#60a917;strokeColor=#2D7600;fontColor=#ffffff;" vertex="1" parent="eBCpTWnn6efVukBT622a-14">
          <mxGeometry width="80" height="80" as="geometry" />
        </mxCell>
        <mxCell id="eBCpTWnn6efVukBT622a-16" value="H" style="text;html=1;align=center;verticalAlign=middle;whiteSpace=wrap;rounded=0;fontSize=20;fontStyle=1" vertex="1" parent="eBCpTWnn6efVukBT622a-14">
          <mxGeometry x="10" y="25" width="60" height="30" as="geometry" />
        </mxCell>
        <mxCell id="eBCpTWnn6efVukBT622a-17" value="" style="group;rotation=90;" vertex="1" connectable="0" parent="1">
          <mxGeometry x="300" y="380" width="80" height="80" as="geometry" />
        </mxCell>
        <mxCell id="eBCpTWnn6efVukBT622a-18" value="" style="ellipse;whiteSpace=wrap;html=1;strokeWidth=3;fontFamily=Tahoma;fillColor=#60a917;strokeColor=#2D7600;fontColor=#ffffff;" vertex="1" parent="eBCpTWnn6efVukBT622a-17">
          <mxGeometry width="80" height="80" as="geometry" />
        </mxCell>
        <mxCell id="eBCpTWnn6efVukBT622a-19" value="E" style="text;html=1;align=center;verticalAlign=middle;whiteSpace=wrap;rounded=0;fontSize=20;fontStyle=1" vertex="1" parent="eBCpTWnn6efVukBT622a-17">
          <mxGeometry x="10" y="25" width="60" height="30" as="geometry" />
        </mxCell>
        <mxCell id="eBCpTWnn6efVukBT622a-21" value="" style="endArrow=none;html=1;rounded=0;exitX=0;exitY=1;exitDx=0;exitDy=0;entryX=1;entryY=0;entryDx=0;entryDy=0;strokeWidth=4;" edge="1" parent="1" source="eBCpTWnn6efVukBT622a-2" target="eBCpTWnn6efVukBT622a-5">
          <mxGeometry width="50" height="50" relative="1" as="geometry">
            <mxPoint x="313" y="172" as="sourcePoint" />
            <mxPoint x="189" y="118" as="targetPoint" />
          </mxGeometry>
        </mxCell>
        <mxCell id="eBCpTWnn6efVukBT622a-22" value="" style="endArrow=none;html=1;rounded=0;exitX=0;exitY=1;exitDx=0;exitDy=0;entryX=1;entryY=0;entryDx=0;entryDy=0;strokeWidth=4;" edge="1" parent="1" source="eBCpTWnn6efVukBT622a-5" target="eBCpTWnn6efVukBT622a-12">
          <mxGeometry width="50" height="50" relative="1" as="geometry">
            <mxPoint x="234" y="320" as="sourcePoint" />
            <mxPoint x="150" y="404" as="targetPoint" />
          </mxGeometry>
        </mxCell>
        <mxCell id="eBCpTWnn6efVukBT622a-23" value="" style="endArrow=none;html=1;rounded=0;exitX=1;exitY=1;exitDx=0;exitDy=0;entryX=0.313;entryY=0.038;entryDx=0;entryDy=0;strokeWidth=4;entryPerimeter=0;" edge="1" parent="1" source="eBCpTWnn6efVukBT622a-5" target="eBCpTWnn6efVukBT622a-18">
          <mxGeometry width="50" height="50" relative="1" as="geometry">
            <mxPoint x="304" y="330" as="sourcePoint" />
            <mxPoint x="230" y="434" as="targetPoint" />
          </mxGeometry>
        </mxCell>
        <mxCell id="eBCpTWnn6efVukBT622a-24" value="" style="endArrow=none;html=1;rounded=0;strokeWidth=4;exitX=0.25;exitY=0.925;exitDx=0;exitDy=0;exitPerimeter=0;entryX=0.725;entryY=0.038;entryDx=0;entryDy=0;entryPerimeter=0;" edge="1" parent="1" source="eBCpTWnn6efVukBT622a-12" target="eBCpTWnn6efVukBT622a-15">
          <mxGeometry width="50" height="50" relative="1" as="geometry">
            <mxPoint x="92" y="448" as="sourcePoint" />
            <mxPoint x="30" y="550" as="targetPoint" />
          </mxGeometry>
        </mxCell>
        <mxCell id="eBCpTWnn6efVukBT622a-25" value="" style="endArrow=none;html=1;rounded=0;strokeWidth=4;exitX=1;exitY=1;exitDx=0;exitDy=0;entryX=0.313;entryY=0.075;entryDx=0;entryDy=0;entryPerimeter=0;" edge="1" parent="1" source="eBCpTWnn6efVukBT622a-12" target="eBCpTWnn6efVukBT622a-9">
          <mxGeometry width="50" height="50" relative="1" as="geometry">
            <mxPoint x="190" y="470" as="sourcePoint" />
            <mxPoint x="108" y="569" as="targetPoint" />
          </mxGeometry>
        </mxCell>
        <mxCell id="eBCpTWnn6efVukBT622a-26" value="" style="group" vertex="1" connectable="0" parent="1">
          <mxGeometry x="480" y="220" width="80" height="80" as="geometry" />
        </mxCell>
        <mxCell id="eBCpTWnn6efVukBT622a-27" value="" style="ellipse;whiteSpace=wrap;html=1;strokeWidth=3;fontFamily=Tahoma;fillColor=#60a917;strokeColor=#2D7600;fontColor=#ffffff;" vertex="1" parent="eBCpTWnn6efVukBT622a-26">
          <mxGeometry width="80" height="80" as="geometry" />
        </mxCell>
        <mxCell id="eBCpTWnn6efVukBT622a-28" value="C" style="text;html=1;align=center;verticalAlign=middle;whiteSpace=wrap;rounded=0;fontSize=20;fontStyle=1" vertex="1" parent="eBCpTWnn6efVukBT622a-26">
          <mxGeometry x="10" y="25" width="60" height="30" as="geometry" />
        </mxCell>
        <mxCell id="eBCpTWnn6efVukBT622a-29" value="" style="endArrow=none;html=1;rounded=0;exitX=0.963;exitY=0.713;exitDx=0;exitDy=0;entryX=0.338;entryY=0.025;entryDx=0;entryDy=0;strokeWidth=4;exitPerimeter=0;entryPerimeter=0;" edge="1" parent="1" source="eBCpTWnn6efVukBT622a-2" target="eBCpTWnn6efVukBT622a-27">
          <mxGeometry width="50" height="50" relative="1" as="geometry">
            <mxPoint x="584" y="130" as="sourcePoint" />
            <mxPoint x="500" y="214" as="targetPoint" />
          </mxGeometry>
        </mxCell>
        <mxCell id="eBCpTWnn6efVukBT622a-31" value="" style="group" vertex="1" connectable="0" parent="1">
          <mxGeometry x="414" y="380" width="80" height="80" as="geometry" />
        </mxCell>
        <mxCell id="eBCpTWnn6efVukBT622a-32" value="" style="ellipse;whiteSpace=wrap;html=1;strokeWidth=3;fontFamily=Tahoma;fillColor=#60a917;strokeColor=#2D7600;fontColor=#ffffff;" vertex="1" parent="eBCpTWnn6efVukBT622a-31">
          <mxGeometry width="80" height="80" as="geometry" />
        </mxCell>
        <mxCell id="eBCpTWnn6efVukBT622a-33" value="F" style="text;html=1;align=center;verticalAlign=middle;whiteSpace=wrap;rounded=0;fontSize=20;fontStyle=1" vertex="1" parent="eBCpTWnn6efVukBT622a-31">
          <mxGeometry x="10" y="25" width="60" height="30" as="geometry" />
        </mxCell>
        <mxCell id="eBCpTWnn6efVukBT622a-34" value="" style="group" vertex="1" connectable="0" parent="1">
          <mxGeometry x="620" y="380" width="80" height="80" as="geometry" />
        </mxCell>
        <mxCell id="eBCpTWnn6efVukBT622a-35" value="" style="ellipse;whiteSpace=wrap;html=1;strokeWidth=3;fontFamily=Tahoma;fillColor=#60a917;strokeColor=#2D7600;fontColor=#ffffff;" vertex="1" parent="eBCpTWnn6efVukBT622a-34">
          <mxGeometry width="80" height="80" as="geometry" />
        </mxCell>
        <mxCell id="eBCpTWnn6efVukBT622a-36" value="G" style="text;html=1;align=center;verticalAlign=middle;whiteSpace=wrap;rounded=0;fontSize=20;fontStyle=1" vertex="1" parent="eBCpTWnn6efVukBT622a-34">
          <mxGeometry x="10" y="25" width="60" height="30" as="geometry" />
        </mxCell>
        <mxCell id="eBCpTWnn6efVukBT622a-37" value="" style="group" vertex="1" connectable="0" parent="1">
          <mxGeometry x="747" y="550" width="80" height="80" as="geometry" />
        </mxCell>
        <mxCell id="eBCpTWnn6efVukBT622a-38" value="" style="ellipse;whiteSpace=wrap;html=1;strokeWidth=3;fontFamily=Tahoma;fillColor=#60a917;strokeColor=#2D7600;fontColor=#ffffff;" vertex="1" parent="eBCpTWnn6efVukBT622a-37">
          <mxGeometry width="80" height="80" as="geometry" />
        </mxCell>
        <mxCell id="eBCpTWnn6efVukBT622a-39" value="J" style="text;html=1;align=center;verticalAlign=middle;whiteSpace=wrap;rounded=0;fontSize=20;fontStyle=1" vertex="1" parent="eBCpTWnn6efVukBT622a-37">
          <mxGeometry x="10" y="25" width="60" height="30" as="geometry" />
        </mxCell>
        <mxCell id="eBCpTWnn6efVukBT622a-40" value="" style="group" vertex="1" connectable="0" parent="1">
          <mxGeometry x="640" y="730" width="80" height="80" as="geometry" />
        </mxCell>
        <mxCell id="eBCpTWnn6efVukBT622a-41" value="" style="ellipse;whiteSpace=wrap;html=1;strokeWidth=3;fontFamily=Tahoma;fillColor=#60a917;strokeColor=#2D7600;fontColor=#ffffff;" vertex="1" parent="eBCpTWnn6efVukBT622a-40">
          <mxGeometry width="80" height="80" as="geometry" />
        </mxCell>
        <mxCell id="eBCpTWnn6efVukBT622a-42" value="K" style="text;html=1;align=center;verticalAlign=middle;whiteSpace=wrap;rounded=0;fontSize=20;fontStyle=1" vertex="1" parent="eBCpTWnn6efVukBT622a-40">
          <mxGeometry x="10" y="25" width="60" height="30" as="geometry" />
        </mxCell>
        <mxCell id="eBCpTWnn6efVukBT622a-43" value="" style="endArrow=none;html=1;rounded=0;exitX=0.263;exitY=0.938;exitDx=0;exitDy=0;entryX=0.5;entryY=0;entryDx=0;entryDy=0;strokeWidth=4;exitPerimeter=0;" edge="1" parent="1" source="eBCpTWnn6efVukBT622a-27" target="eBCpTWnn6efVukBT622a-32">
          <mxGeometry width="50" height="50" relative="1" as="geometry">
            <mxPoint x="480" y="300" as="sourcePoint" />
            <mxPoint x="560" y="385" as="targetPoint" />
          </mxGeometry>
        </mxCell>
        <mxCell id="eBCpTWnn6efVukBT622a-44" value="" style="endArrow=none;html=1;rounded=0;exitX=0.925;exitY=0.775;exitDx=0;exitDy=0;entryX=0.275;entryY=0.038;entryDx=0;entryDy=0;strokeWidth=4;exitPerimeter=0;entryPerimeter=0;" edge="1" parent="1" source="eBCpTWnn6efVukBT622a-27" target="eBCpTWnn6efVukBT622a-35">
          <mxGeometry width="50" height="50" relative="1" as="geometry">
            <mxPoint x="647" y="295" as="sourcePoint" />
            <mxPoint x="600" y="380" as="targetPoint" />
          </mxGeometry>
        </mxCell>
        <mxCell id="eBCpTWnn6efVukBT622a-45" value="" style="endArrow=none;html=1;rounded=0;exitX=1;exitY=1;exitDx=0;exitDy=0;strokeWidth=4;" edge="1" parent="1" source="eBCpTWnn6efVukBT622a-35" target="eBCpTWnn6efVukBT622a-38">
          <mxGeometry width="50" height="50" relative="1" as="geometry">
            <mxPoint x="659" y="470" as="sourcePoint" />
            <mxPoint x="747" y="571" as="targetPoint" />
          </mxGeometry>
        </mxCell>
        <mxCell id="eBCpTWnn6efVukBT622a-46" value="" style="endArrow=none;html=1;rounded=0;exitX=0.325;exitY=0.95;exitDx=0;exitDy=0;strokeWidth=4;exitPerimeter=0;entryX=0.763;entryY=0.088;entryDx=0;entryDy=0;entryPerimeter=0;" edge="1" parent="1" source="eBCpTWnn6efVukBT622a-38" target="eBCpTWnn6efVukBT622a-41">
          <mxGeometry width="50" height="50" relative="1" as="geometry">
            <mxPoint x="620" y="580" as="sourcePoint" />
            <mxPoint x="696" y="689" as="targetPoint" />
          </mxGeometry>
        </mxCell>
      </root>
    </mxGraphModel>
  </diagram>
</mxfile>
